<svg version="1.1" xmlns="http://www.w3.org/2000/svg" style="display: block;" viewBox="0 0 2048 2048" width="582" height="582" preserveAspectRatio="none">
<path transform="translate(0,0)" fill="rgb(255,152,4)" d="M 0 0 L 403.171 0 L 800.049 0 L 1335.6 0 L 1940.45 0 L 2048 0 L 2048 439.078 L 2048 794.589 L 2048 1258.22 L 2048 1613.42 L 2048 2048 L 1932.18 2048 L 1331.24 2048 L 797.023 2048 L 403.283 2048 L 0 2048 L 0 0 z"/>
<path transform="translate(0,0)" fill="rgb(0,0,0)" d="M 837.077 1149.72 C 928.284 1158.93 1021.87 1166.17 1113.36 1174.38 L 1703.46 1227.11 L 1935.22 1247.81 C 1971.6 1251.11 2011.99 1253.82 2048 1258.22 L 2048 1613.42 L 1211.44 1314.55 L 961.263 1225.15 C 922.912 1211.48 874.994 1192.56 836.915 1181 C 836.903 1170.57 836.957 1160.15 837.077 1149.72 z"/>
<path transform="translate(0,0)" fill="rgb(0,0,0)" d="M 2048 439.078 L 2048 794.589 L 836.977 901.662 L 836.839 871.775 L 1748.79 545.851 C 1847.93 510.441 1948.62 473.25 2048 439.078 z"/>
<path transform="translate(0,0)" fill="rgb(0,0,0)" d="M 1335.6 0 L 1940.45 0 C 1931.88 5.96563 1907.27 18.0072 1896.87 23.4053 L 1809.01 69.0364 L 1507.33 226.042 L 957.285 512.188 L 778.255 605.344 C 746.959 621.631 712.688 640.51 681.129 655.572 C 674.25 647.064 659.116 632.806 650.804 624.563 L 1080.81 232.749 L 1247.02 81.2509 C 1276.06 54.7491 1307.47 27.1754 1335.6 0 z"/>
<path transform="translate(0,0)" fill="rgb(0,0,0)" d="M 650.736 1427.37 C 660.212 1418.77 672.795 1406.33 681.483 1396.8 L 1526.44 1836.39 L 1798.2 1977.78 L 1885.26 2023.02 C 1898.86 2030.09 1919.76 2040.19 1932.18 2048 L 1331.24 2048 L 870.325 1627.81 L 724.579 1494.94 C 701.598 1473.99 672.384 1448.9 650.736 1427.37 z"/>
<path transform="translate(0,0)" fill="rgb(0,0,0)" d="M 403.171 0 L 800.049 0 C 769.813 46.0172 736.431 92.1105 705.499 137.909 C 616.454 269.748 523.065 400.328 434.502 532.371 C 424.124 532.406 413.746 532.329 403.371 532.14 C 402.631 469.629 403.18 406.249 403.177 343.631 L 403.171 0 z"/>
<path transform="translate(0,0)" fill="rgb(0,0,0)" d="M 403.262 1519.21 L 434.568 1519.2 C 444.368 1534.79 456.894 1552.16 467.421 1567.48 L 526.176 1653.06 L 710.549 1921.68 L 767.31 2004.36 C 776.295 2017.44 788.998 2034.77 797.023 2048 L 403.283 2048 L 403.262 1519.21 z"/>
</svg>