<svg version="1.1" xmlns="http://www.w3.org/2000/svg" style="display: block;" viewBox="0 0 2000 2000" width="500" height="500" preserveAspectRatio="none">
<path transform="translate(0,0)" fill="rgb(33,41,49)" d="M 0 0 L 2000 0 L 2000 2000 L 0 2000 L 0 0 z"/>
<path transform="translate(0,0)" fill="rgb(64,187,243)" d="M 1237.91 851.331 C 1280.46 785.894 1342.5 742.082 1419 725.767 C 1491.07 710.971 1566.07 725.045 1627.88 764.963 C 1690.82 805.772 1734.78 870.089 1749.97 943.546 C 1764.65 1015.58 1750.42 1090.49 1710.36 1152.13 C 1624.37 1282.58 1453.58 1317.51 1321.86 1233.99 C 1285.97 1211.23 1261.69 1181.78 1237.45 1147.57 L 1237.28 1146.68 C 1222.36 1125.58 1210.05 1092.27 1203.81 1067.03 C 1186.12 993.971 1198.2 916.878 1237.4 852.736 L 1237.91 851.331 z"/>
<path transform="translate(0,0)" fill="rgb(254,254,254)" d="M 1237.4 852.736 C 1244.79 861.878 1251.72 876.1 1256.39 886.828 C 1276.28 931.923 1283.88 981.479 1278.42 1030.46 C 1274.66 1066.43 1263.48 1102.28 1246.33 1134.13 C 1244.3 1137.91 1240.71 1144.19 1237.28 1146.68 C 1222.36 1125.58 1210.05 1092.27 1203.81 1067.03 C 1186.12 993.971 1198.2 916.878 1237.4 852.736 z"/>
<path transform="translate(0,0)" fill="rgb(0,226,84)" d="M 761.831 851.16 C 771.519 837.821 778.795 827.457 789.917 815.025 C 833.157 765.876 892.234 733.408 956.904 723.254 C 1031.3 711.833 1107.16 730.688 1167.55 775.605 C 1199.05 798.922 1215.88 820.471 1237.91 851.331 L 1237.4 852.736 C 1198.2 916.878 1186.12 993.971 1203.81 1067.03 C 1210.05 1092.27 1222.36 1125.58 1237.28 1146.68 L 1237.45 1147.57 C 1221.67 1176.23 1188.67 1209.26 1162.77 1227.79 C 1052.04 1307.02 890.926 1293.28 797.623 1193.08 C 784.158 1178.62 773.495 1163.89 761.873 1147.87 L 762.02 1147.26 C 745.443 1122.41 734.117 1092.49 727.294 1063.52 C 710.393 991.315 722.859 915.354 761.95 852.337 L 761.831 851.16 z"/>
<path transform="translate(0,0)" fill="rgb(254,254,254)" d="M 761.95 852.337 C 799.591 906.992 811.747 987.403 799.459 1052.02 C 794.811 1076.46 778.306 1129.2 762.02 1147.26 C 745.443 1122.41 734.117 1092.49 727.294 1063.52 C 710.393 991.315 722.859 915.354 761.95 852.337 z"/>
<path transform="translate(0,0)" fill="rgb(254,128,0)" d="M 761.873 1147.87 C 740.21 1182.32 711.502 1211.79 677.636 1234.35 C 617.858 1273.61 535.749 1288.94 466.147 1273.11 C 388.903 1255.54 330.594 1215.98 287.712 1149.36 C 248.623 1087.52 235.21 1012.86 250.328 941.285 C 266.121 868.458 310.188 804.883 372.84 764.537 C 433.768 725.355 511.336 710.192 582.234 725.962 C 656.527 741.784 721.286 786.928 761.831 851.16 L 761.95 852.337 C 722.859 915.354 710.393 991.315 727.294 1063.52 C 734.117 1092.49 745.443 1122.41 762.02 1147.26 L 761.873 1147.87 z"/>
</svg>