<?xml version="1.0" encoding="utf-8"?><!-- Generator: Adobe Illustrator 24.3.0, SVG Export Plug-In . SVG Version: 6.00 Build 0)  --><svg xmlns="http://www.w3.org/2000/svg" xmlns:xlink="http://www.w3.org/1999/xlink" version="1.1" id="Layer_1" x="0px" y="0px" viewBox="7.199999999999999 7.199999999999999 57.599999999999994 57.599999999999994" style="enable-background:new 0 0 72 72;" xml:space="preserve" width="120" height="120">
<style type="text/css">
	.st0{fill:#F93208;}
	.st1{fill:#FFFFFF;}
</style>
<rect class="st0" width="72" height="72"/>
<g>
	<path class="st1" d="M34.3,22.1c0.2-1.8,1-2.3,1.9-2.4c-1.3-2.3-5.5-1.1-6.9,2.1c0,0.1-2.5-3.8-2.5-3.8l0,0l-2.3,1.9l3.1,2.7   c-4-1.5-7.3,2.1-7.6,3.5c2.1-0.5,3.4-0.6,5-0.5c-10.6,7-7.5,19.8-2.2,24.3c8.7,7,20.8,4.8,27-2C59,38.1,52.6,18.9,34.3,22.1z    M46.7,36.8h-2v5.7v5.7h-2.2l-2.3,0c0-3.9,0-7.3,0-11.3l0,0l-2,0H37c-0.4,0.7-0.9,1.3-1.6,1.7c-0.4,0.3-0.5,0.3-0.4,0.4   c0.2,0.3,3.2,5.5,3.2,5.5c0,0-1.1,0-2.6,0h-2.6L31.7,42c-0.8-1.4-1.5-2.5-1.6-2.6c-0.1-0.1-0.2-0.1-0.5-0.1l-0.4,0l0,2.6l0,2.6   l-1.1,0c-0.6,0-1.6,0-2.3,0l0,0l-1.2,0v-7.8v-7.8h3.7c4,0,4.4,0,5.4,0.3c1.6,0.5,2.8,1.5,3.5,2.9c0.1,0.2,0.1,0.3,0.2,0.5l5.1,0   c3.4,0,6.4,0,6.4,0l0,4.4L46.7,36.8z"/>
	<path class="st1" d="M29.9,32.2l-0.8,0l0,0.5c0,0.3,0,1.1,0,1.8v1.3l0.9,0c0.5,0,1-0.1,1.3-0.1l0,0c1-0.2,1.6-0.7,1.6-1.5   c0-0.6-0.1-1-0.5-1.3C32,32.4,31.4,32.2,29.9,32.2z"/>
</g>
</svg>